# xmcd
#
# Track frame offsets:
#	150
#	6232
#	17583
#	33001
#	49894
#	69110
#	83716
#	97934
#	114033
#	130403
#	141357
#	156872
#	168687
#	184335
#	196344
#	211359
#	224709
#	237939
#	256750
#	269381
#	305274
#	315865
#	343221
#
# Disc length: 4582 seconds
#
# Revision: 1
# Processed by: cddbd v1.5.1PL0 Copyright (c) Steve Scherf et al.
# Submitted via: audiograbber 1.83.01
#
DISCID=3e11e417
DTITLE=Top Tunes Karoke - Blues Brothers Artist Vol 17 TT-102 v2
DYEAR=1900
DGENRE=
TTITLE0=Can't Turn You Loose (Intro for the KJ)
TTITLE1=Everybody Needs Somebody To Love
TTITLE2=Expressway to Your Heart
TTITLE3=Flip Flop Fly
TTITLE4=Funky Nassau
TTITLE5=Ghost Riders In The Sky
TTITLE6=Gimme Some Lovin
TTITLE7=Going Back to Miami
TTITLE8=Jailhouse Rock
TTITLE9=John The Revelator
TTITLE10=Minnie The Moocher
TTITLE11=Money (Thats What I Want)
TTITLE12=New Orleans
TTITLE13=Rawhide
TTITLE14=Riot in Cell Block Number Nine
TTITLE15=Rubber Biscuit
TTITLE16=Shake Your Tailfeather
TTITLE17=She Caught The Katy
TTITLE18=Soul Man
TTITLE19=Sweet Home Chicago
TTITLE20=Think
TTITLE21=Who's Making Love
TTITLE22=Data Track
EXTD=
EXTT0=
EXTT1=
EXTT2=
EXTT3=
EXTT4=
EXTT5=
EXTT6=
EXTT7=
EXTT8=
EXTT9=
EXTT10=
EXTT11=
EXTT12=
EXTT13=
EXTT14=
EXTT15=
EXTT16=
EXTT17=
EXTT18=
EXTT19=
EXTT20=
EXTT21=
EXTT22=
PLAYORDER=
